<svg width="242" height="109" viewBox="0 0 242 109" fill="none" xmlns="http://www.w3.org/2000/svg">
<path d="M91.4335 95.1911C88.3765 95.1911 85.7054 94.4963 83.4203 93.1067C81.1353 91.7172 79.3597 89.7872 78.0937 87.3169C76.8276 84.8156 76.1946 81.913 76.1946 78.6089C76.1946 75.2739 76.843 72.3404 78.14 69.8083C79.4678 67.2453 81.336 65.2536 83.7446 63.8332C86.184 62.3818 89.0712 61.6562 92.4062 61.6562C96.2044 61.6562 99.354 62.5671 101.855 64.389C104.356 66.2109 105.978 68.7275 106.719 71.939H100.095C99.6011 70.4259 98.7056 69.2525 97.4086 68.4187C96.1117 67.5541 94.4442 67.1218 92.4062 67.1218C89.1639 67.1218 86.6627 68.1563 84.9025 70.2252C83.1424 72.2632 82.2624 75.0732 82.2624 78.6552C82.2624 82.2372 83.127 85.0164 84.8562 86.9926C86.6163 88.938 88.994 89.9107 91.9893 89.9107C94.9229 89.9107 97.1307 89.1233 98.6129 87.5485C100.126 85.9427 101.037 83.8429 101.346 81.2491H93.1473V76.8025H107.321V94.6353H101.855L101.392 90.3739C100.342 91.9179 99.0298 93.1067 97.455 93.9405C95.8801 94.7742 93.873 95.1911 91.4335 95.1911ZM120.866 95.1911C118.89 95.1911 117.269 94.8823 116.003 94.2647C114.737 93.6162 113.795 92.7671 113.177 91.7172C112.56 90.6673 112.251 89.5093 112.251 88.2432C112.251 86.1126 113.085 84.3833 114.752 83.0555C116.42 81.7277 118.921 81.0638 122.256 81.0638H128.092V80.508C128.092 78.9331 127.644 77.7752 126.749 77.0341C125.853 76.293 124.742 75.9224 123.414 75.9224C122.21 75.9224 121.16 76.2158 120.264 76.8025C119.369 77.3583 118.813 78.192 118.597 79.3037H112.807C112.961 77.6362 113.517 76.1849 114.474 74.9497C115.462 73.7145 116.728 72.7727 118.272 72.1243C119.816 71.4449 121.546 71.1052 123.46 71.1052C126.733 71.1052 129.312 71.9235 131.195 73.5601C133.079 75.1967 134.021 77.5127 134.021 80.508V94.6353H128.972L128.416 90.9297C127.737 92.1649 126.78 93.1839 125.544 93.9868C124.34 94.7897 122.781 95.1911 120.866 95.1911ZM122.21 90.5592C123.908 90.5592 125.22 90.0034 126.147 88.8917C127.104 87.7801 127.706 86.4059 127.953 84.7693H122.904C121.329 84.7693 120.202 85.0627 119.523 85.6494C118.844 86.2052 118.504 86.9 118.504 87.7337C118.504 88.6292 118.844 89.324 119.523 89.8181C120.202 90.3122 121.098 90.5592 122.21 90.5592ZM139.679 94.6353V71.6611H144.959L145.515 75.9687C146.349 74.4865 147.476 73.3131 148.896 72.4485C150.347 71.553 152.046 71.1052 153.991 71.1052V77.3583H152.324C151.027 77.3583 149.869 77.559 148.85 77.9604C147.831 78.3619 147.028 79.0567 146.441 80.0448C145.885 81.0329 145.607 82.4071 145.607 84.1672V94.6353H139.679ZM168.197 95.1911C166.035 95.1911 164.105 94.6661 162.407 93.6162C160.709 92.5663 159.366 91.1305 158.377 89.3086C157.389 87.4867 156.895 85.4178 156.895 83.1018C156.895 80.7859 157.389 78.7324 158.377 76.9414C159.366 75.1195 160.709 73.6991 162.407 72.6801C164.105 71.6302 166.035 71.1052 168.197 71.1052C169.926 71.1052 171.439 71.4295 172.736 72.0779C174.033 72.7264 175.083 73.6373 175.886 74.8108V61.2856H181.815V94.6353H176.534L175.886 91.3466C175.145 92.3656 174.157 93.2611 172.922 94.0331C171.717 94.8051 170.142 95.1911 168.197 95.1911ZM169.448 90.0034C171.362 90.0034 172.922 89.3703 174.126 88.1043C175.361 86.8074 175.979 85.1553 175.979 83.1482C175.979 81.141 175.361 79.5044 174.126 78.2384C172.922 76.9414 171.362 76.293 169.448 76.293C167.564 76.293 166.005 76.926 164.769 78.192C163.534 79.4581 162.917 81.0947 162.917 83.1018C162.917 85.109 163.534 86.761 164.769 88.058C166.005 89.3549 167.564 90.0034 169.448 90.0034ZM199.015 95.1911C196.699 95.1911 194.646 94.697 192.855 93.7089C191.064 92.7207 189.659 91.3312 188.64 89.5402C187.621 87.7492 187.111 85.6803 187.111 83.3334C187.111 80.9557 187.605 78.8405 188.593 76.9877C189.612 75.135 191.002 73.6991 192.762 72.6801C194.553 71.6302 196.653 71.1052 199.061 71.1052C201.315 71.1052 203.307 71.5993 205.036 72.5874C206.766 73.5756 208.109 74.9343 209.066 76.6635C210.054 78.3619 210.548 80.2609 210.548 82.3607C210.548 82.7004 210.533 83.0555 210.502 83.4261C210.502 83.7966 210.487 84.1826 210.456 84.584H192.994C193.117 86.375 193.735 87.7801 194.846 88.7991C195.989 89.8181 197.363 90.3276 198.969 90.3276C200.173 90.3276 201.177 90.0651 201.979 89.5402C202.813 88.9843 203.431 88.2741 203.832 87.4095H209.854C209.421 88.8608 208.696 90.1886 207.677 91.3929C206.688 92.5663 205.453 93.4927 203.971 94.1721C202.52 94.8514 200.868 95.1911 199.015 95.1911ZM199.061 75.9224C197.61 75.9224 196.328 76.3393 195.217 77.173C194.105 77.9759 193.395 79.2111 193.086 80.8785H204.527C204.434 79.3654 203.878 78.1612 202.859 77.2657C201.84 76.3702 200.574 75.9224 199.061 75.9224ZM215.535 94.6353V71.6611H220.769L221.232 75.5519C221.942 74.1932 222.961 73.1124 224.289 72.3095C225.648 71.5067 227.238 71.1052 229.06 71.1052C231.901 71.1052 234.109 72.0007 235.684 73.7917C237.259 75.5827 238.046 78.2075 238.046 81.666V94.6353H232.117V82.2218C232.117 80.2455 231.716 78.7324 230.913 77.6825C230.11 76.6326 228.859 76.1077 227.161 76.1077C225.493 76.1077 224.119 76.6944 223.039 77.8678C221.989 79.0412 221.464 80.6778 221.464 82.7776V94.6353H215.535Z" fill="#F8F8F8"/>
<path d="M26.5736 107.867C26.5766 96.2346 26.5795 84.5991 26.5825 72.9666C26.6325 72.7723 26.7149 72.578 26.7326 72.3808C26.9798 69.299 27.5126 66.2761 28.4251 63.3091C30.044 58.0462 32.5989 53.3072 36.1193 49.0863C38.8331 45.8308 42.0739 43.1935 45.6414 40.9417C48.9116 38.8784 52.4408 37.3684 56.1466 36.3293C61.851 34.734 67.7114 34.9076 73.5542 34.9606C73.9898 34.9636 74.1959 35.096 74.1782 35.5729C74.034 40.0028 74.4667 44.4474 73.7279 48.8655C73.3393 51.1909 72.8419 53.4897 72.0648 55.7002C70.6991 59.5915 68.7711 63.209 66.3015 66.5292C62.8724 71.1357 58.6868 74.8651 53.6476 77.6261C53.0589 77.9499 52.7851 77.8969 52.8028 77.164C52.8264 76.1632 52.7381 75.1565 52.8411 74.1646C53.1737 70.965 54.1803 68.0333 56.5557 65.7374C62.7723 59.724 65.8629 52.3241 66.328 43.7498C66.3633 43.0963 66.1367 42.8491 65.4685 42.8874C63.2079 43.0198 60.968 43.273 58.7663 43.8352C49.1617 46.2959 42.2358 52.1239 37.7441 60.866C35.3981 65.4313 34.4415 70.3734 34.4592 75.5186C34.4915 85.9914 34.4592 96.4642 34.4827 106.937C34.4827 107.761 34.2767 108.088 33.4025 108.064C31.4362 108.008 29.4671 108.041 27.5008 108.044C27.1741 108.044 26.8533 108.056 26.5677 107.864L26.5736 107.867Z" fill="white"/>
<path d="M21.4226 77.2842C21.4226 77.4019 21.4226 77.5167 21.4226 77.6345C21.0576 78.0377 20.7485 77.7522 20.4218 77.5668C17.1133 75.6918 14.1051 73.4283 11.4384 70.7026C5.73393 64.8716 2.19883 57.9251 0.685895 49.9218C-0.217747 45.174 0.0530514 40.3703 6.91383e-05 35.5813C-0.00581778 34.9425 0.365058 34.9631 0.797747 34.9631C3.61464 34.972 6.43447 34.9219 9.25136 34.9926C12.2831 35.072 15.2707 35.596 18.1907 36.3789C20.4807 36.9912 22.7059 37.8448 24.8429 38.8868C27.2418 40.0553 29.52 41.4358 31.6511 43.0518C32.0779 43.3755 32.2221 43.664 31.8218 44.1232C30.3736 45.7862 29.1285 47.5994 27.96 49.4656C27.7216 49.8482 27.595 49.8423 27.2418 49.5686C21.8288 45.3859 15.6799 43.2225 8.86283 42.8869C7.99156 42.8428 7.81496 43.1842 7.86205 43.9613C8.05043 47.2668 8.63029 50.4958 9.76941 53.6041C11.406 58.0693 13.8608 62.0488 17.2635 65.372C20.0715 68.1124 21.2401 71.4473 21.3402 75.2679C21.3578 75.939 21.2371 76.619 21.4285 77.2842H21.4226Z" fill="white"/>
<path d="M54.6689 29.05C54.8102 29.6416 54.56 29.9124 53.9919 30.0567C51.7991 30.613 49.6709 31.3753 47.6164 32.3231C46.857 32.6734 46.6922 32.4085 46.6127 31.6491C45.8297 24.2051 42.9863 17.6912 37.85 12.2075C37.3526 11.6777 37.0523 11.6924 36.6108 12.181C34.0441 15.0067 31.9572 18.1445 30.459 21.6648C29.0579 24.9615 28.1778 28.3907 27.8687 31.9611C27.8216 32.488 27.6627 32.644 27.1594 32.4202C24.9312 31.4342 22.6382 30.6189 20.2834 29.986C19.8036 29.8565 19.6594 29.6151 19.7418 29.0853C20.307 25.3795 21.2489 21.7796 22.7559 18.3505C24.8517 13.585 27.751 9.34352 31.3862 5.6171C33.0463 3.91578 34.7535 2.2645 36.39 0.542571C36.9728 -0.069669 37.3231 -0.255107 38.0148 0.468984C41.0201 3.6126 44.305 6.49425 46.8923 10.0293C49.4207 13.485 51.4076 17.2173 52.7851 21.2881C53.6446 23.8283 54.301 26.4038 54.6719 29.05H54.6689Z" fill="white"/>
<path d="M47.8343 72.51C47.7077 72.8456 47.693 73.1959 47.7136 73.5491C47.434 74.1348 47.5606 74.7618 47.5606 75.3652C47.5517 85.9234 47.5488 96.4816 47.5694 107.04C47.5694 107.796 47.384 108.082 46.5863 108.058C44.7378 108.005 42.8864 108.041 41.0379 108.038C39.7898 108.038 39.7869 108.035 39.7869 106.769C39.7869 96.5346 39.7928 86.3002 39.781 76.0628C39.781 74.4998 39.9076 72.9516 40.0812 71.4004C40.1401 70.8794 40.3726 70.376 40.2372 69.8374C40.2431 69.7432 40.249 69.6519 40.252 69.5578C40.5522 68.972 40.7141 68.3509 40.7494 67.6945C40.7847 67.5856 40.8171 67.4738 40.8524 67.3649C41.0791 66.7791 41.3911 66.2199 41.4411 65.5753C41.4735 65.4634 41.5059 65.3516 41.5383 65.2397C41.7973 64.9248 41.9857 64.5774 42.0269 64.1624C42.0798 64.0152 42.1299 63.868 42.1829 63.7209C42.439 63.4412 42.6627 63.144 42.7009 62.7495C42.7568 62.5965 42.8157 62.4405 42.8716 62.2874C43.0659 62.2138 43.1572 62.0873 43.0924 61.8753C43.2543 61.7605 43.3838 61.6281 43.4044 61.4191C44.2374 60.2152 45.0704 59.0143 45.9034 57.8104C45.9976 57.6956 46.0918 57.5808 46.186 57.466C46.6923 57.0598 47.278 56.7243 47.4899 56.0443C47.6371 55.903 47.7843 55.7618 47.9285 55.6205C48.1404 55.6381 48.2258 55.5322 48.2081 55.3291C48.2493 55.3291 48.2699 55.3085 48.267 55.2673C48.7056 55.1613 48.9882 54.8728 49.1824 54.4814C49.2325 54.449 49.2825 54.4195 49.3325 54.3872C49.7093 54.3401 49.9124 54.0928 50.0449 53.7631C50.1597 53.6719 50.2774 53.5777 50.3922 53.4865C50.6012 53.5218 50.7012 53.4246 50.716 53.2216C50.7837 53.1774 50.8543 53.1362 50.922 53.092C51.3311 53.1303 51.4901 52.8301 51.6608 52.5446C53.0325 51.8322 54.3129 50.9639 55.7522 50.3723C57.0503 49.8395 58.366 49.3686 59.7112 48.9741C60.3352 48.7916 60.4147 49.0095 60.2528 49.501C59.8289 50.7785 59.461 52.0854 58.9282 53.3157C57.4006 56.8538 55.19 59.912 52.3378 62.5229C51.393 63.3883 50.6777 64.4862 50.1037 65.6518C49.8918 65.743 49.8329 65.9108 49.8653 66.1257C49.8241 66.1375 49.8064 66.1639 49.8094 66.2052C49.4944 66.3052 49.4709 66.5525 49.4974 66.8262C49.462 66.9057 49.4238 66.9852 49.3885 67.0646C49.1942 67.1706 49.1353 67.3354 49.1736 67.5444C48.9411 67.8594 48.8292 68.2185 48.7762 68.5982C48.4583 69.078 48.2111 69.5813 48.267 70.1818C48.1993 70.4791 48.1345 70.7734 48.0668 71.0707C47.8225 71.521 47.7401 72.0008 47.8255 72.5071L47.8343 72.51Z" fill="white"/>
<path d="M25.1873 54.8673C24.9607 55.4502 24.7488 56.0271 24.5133 56.5922C23.7244 58.4907 23.1063 60.4423 22.653 62.4497C22.5323 62.9825 22.4058 63.0708 21.9348 62.6381C18.8942 59.8653 16.5954 56.5834 15.0736 52.7628C14.6615 51.7326 14.2701 50.6906 14.0375 49.5927C13.9109 48.9922 13.9904 48.8509 14.6115 49.0187C17.2017 49.7192 19.6242 50.7907 21.8877 52.2271C22.9238 52.8864 23.9275 53.5899 24.8488 54.4082C25.0049 54.5465 25.1815 54.6466 25.1873 54.8703V54.8673Z" fill="white"/>
<path d="M38.2651 38.0629C37.2997 39.0195 36.6345 38.2571 35.9192 37.6684C35.3541 37.2063 34.7977 36.6971 34.1561 36.3674C33.2701 35.9141 33.1259 35.2489 33.1465 34.3453C33.2524 29.7623 34.4622 25.4796 36.552 21.4352C36.708 21.135 36.8434 20.617 37.2438 20.6022C37.65 20.5905 37.6529 21.1144 37.8177 21.4029C40.1607 25.5237 41.2528 29.9801 41.3646 34.7014C41.3823 35.402 41.1085 35.8082 40.5522 36.2202C39.7663 36.7972 38.8185 37.1916 38.2622 38.0599L38.2651 38.0629Z" fill="white"/>
</svg>
